<?xml version="1.0" standalone="no"?>
<!DOCTYPE svg PUBLIC "-//W3C//DTD SVG 20010904//EN"
 "http://www.w3.org/TR/2001/REC-SVG-20010904/DTD/svg10.dtd">
<svg version="1.0" xmlns="http://www.w3.org/2000/svg"
 width="1536.000000pt" height="1536.000000pt" viewBox="0 0 1536.000000 1536.000000"
 preserveAspectRatio="xMidYMid meet">
<g transform="translate(0.000000,1536.000000) scale(0.100000,-0.100000)"
fill="#000000" stroke-width="2" stroke="none">
<path d="M7525 15350 c7 -11 -35 -30 -66 -30 -10 0 -48 -13 -82 -30 -35 -16
-66 -30 -69 -30 -14 0 -112 -73 -159 -117 -248 -233 -313 -575 -170 -893 24
-55 110 -170 166 -223 62 -59 199 -147 230 -147 8 0 19 -9 25 -19 7 -14 9
-273 8 -798 l-3 -778 -485 -3 c-267 -1 -495 0 -507 3 l-22 5 -3 803 -3 802
-34 51 c-19 28 -56 66 -83 84 -46 29 -57 32 -132 32 -72 1 -87 -2 -126 -27
-64 -40 -99 -83 -116 -143 -14 -47 -16 -155 -15 -820 0 -532 -3 -770 -11 -779
-8 -10 -113 -13 -508 -13 -445 0 -499 2 -504 16 -3 9 -6 432 -6 942 0 1020 4
945 -63 1081 -36 72 -128 164 -198 197 -126 62 -98 58 -464 64 l-340 5 -30 61
c-105 211 -253 340 -485 420 -79 27 -340 27 -420 0 -170 -58 -291 -142 -393
-271 -41 -51 -50 -67 -88 -144 -50 -104 -61 -155 -66 -301 -4 -113 -1 -148 15
-211 18 -67 54 -153 97 -228 44 -78 223 -239 295 -267 8 -3 22 -10 30 -15 8
-5 20 -11 25 -13 6 -1 26 -9 45 -15 141 -50 364 -50 500 0 196 72 341 202 443
399 l33 65 275 0 274 0 0 -890 0 -890 -175 -6 c-188 -7 -305 -20 -338 -38 -11
-6 -30 -11 -42 -11 -12 0 -34 -6 -48 -13 -27 -14 -83 -39 -112 -51 -8 -3 -28
-15 -45 -26 -16 -11 -39 -24 -50 -29 -62 -29 -268 -235 -296 -296 -5 -11 -18
-33 -29 -50 -11 -16 -23 -37 -26 -45 -3 -8 -12 -28 -19 -45 -33 -75 -40 -93
-52 -135 -24 -82 -35 -173 -42 -355 l-6 -180 -890 0 -890 0 0 274 0 275 65 33
c228 118 376 305 423 533 15 71 15 249 0 320 -32 155 -113 293 -242 413 -63
58 -73 65 -180 117 -112 55 -160 65 -326 65 -165 0 -213 -9 -326 -64 -103 -50
-132 -70 -212 -149 -93 -91 -147 -180 -199 -327 -30 -85 -33 -342 -4 -425 78
-229 209 -380 420 -485 l61 -30 5 -340 c6 -366 2 -338 64 -464 33 -70 125
-162 197 -198 136 -67 61 -63 1081 -63 510 0 933 -3 942 -6 14 -5 16 -59 16
-505 0 -475 -1 -499 -19 -508 -11 -7 -295 -10 -782 -10 -842 0 -831 0 -897
-62 -65 -61 -85 -105 -85 -188 0 -108 33 -168 126 -229 l42 -27 802 -3 803 -3
5 -22 c3 -12 4 -240 3 -507 l-3 -485 -789 0 c-691 0 -790 2 -797 15 -4 8 -16
33 -26 55 -52 112 -155 232 -258 300 -108 72 -189 102 -322 122 -93 14 -113
14 -205 0 -114 -16 -142 -25 -238 -70 -150 -71 -293 -217 -356 -362 -36 -84
-42 -101 -53 -148 -14 -61 -14 -293 0 -354 6 -27 17 -61 24 -78 7 -16 19 -45
26 -63 34 -90 138 -219 239 -296 101 -77 210 -121 355 -143 185 -29 364 12
530 122 36 24 37 25 110 95 71 68 165 208 165 247 0 7 9 17 19 23 14 7 273 9
798 8 l778 -3 3 -485 c1 -267 0 -495 -3 -507 l-5 -22 -803 -3 -802 -3 -51 -34
c-29 -19 -66 -56 -84 -84 -30 -47 -33 -57 -33 -132 0 -91 8 -110 77 -183 72
-75 41 -73 905 -73 490 0 770 -3 782 -10 18 -9 19 -32 19 -508 0 -446 -2 -500
-16 -505 -9 -3 -434 -6 -945 -6 -1022 0 -942 5 -1078 -63 -72 -36 -164 -128
-197 -198 -62 -126 -58 -98 -64 -464 l-5 -340 -60 -30 c-142 -70 -240 -154
-316 -270 -105 -160 -136 -277 -125 -477 10 -191 84 -355 223 -490 80 -79 109
-99 212 -149 106 -51 154 -61 312 -66 118 -4 154 -1 184 11 21 9 46 16 56 16
16 0 117 45 188 85 77 42 239 222 267 295 3 8 10 23 15 32 16 31 47 131 59
195 19 96 4 278 -31 373 -73 200 -207 346 -409 447 l-55 28 0 275 0 275 890 0
890 0 6 -180 c7 -182 18 -273 42 -355 12 -42 19 -60 52 -135 7 -16 16 -37 19
-45 3 -8 15 -28 26 -45 11 -16 24 -39 29 -50 14 -31 153 -187 197 -220 21 -16
48 -38 59 -48 11 -10 29 -23 40 -28 11 -5 34 -18 50 -29 17 -11 37 -23 45 -26
30 -12 86 -37 113 -50 16 -8 38 -14 48 -14 11 0 30 -5 41 -11 33 -18 150 -31
338 -38 l175 -6 0 -890 0 -890 -274 0 -275 0 -33 65 c-65 125 -135 210 -233
284 -112 83 -180 114 -310 142 -133 28 -362 4 -450 -47 -8 -5 -22 -12 -30 -15
-8 -3 -22 -10 -30 -15 -8 -5 -22 -12 -30 -16 -59 -26 -221 -180 -254 -240 -98
-182 -111 -232 -111 -418 0 -165 9 -213 64 -326 50 -103 70 -132 149 -212 91
-93 180 -147 327 -199 85 -31 342 -33 425 -4 232 80 380 208 485 420 l30 61
340 5 c367 6 333 2 464 64 70 33 161 125 198 197 67 136 63 61 63 1081 0 510
3 933 6 942 5 14 59 16 504 16 395 0 500 -3 508 -13 8 -9 11 -247 11 -779 -1
-665 1 -773 15 -820 17 -60 52 -103 116 -143 39 -25 54 -28 126 -27 75 0 86 3
132 32 27 18 64 56 83 84 l34 51 3 802 3 803 22 5 c12 3 240 4 507 3 l485 -3
3 -778 c1 -525 -1 -784 -8 -798 -6 -10 -16 -19 -23 -19 -34 0 -174 -90 -237
-152 -135 -134 -199 -259 -227 -443 -38 -247 48 -491 238 -670 62 -58 114 -93
207 -136 93 -44 127 -51 287 -56 142 -5 224 5 277 33 14 8 33 14 42 14 15 0
91 42 149 82 99 70 194 182 244 288 44 95 53 124 70 235 50 319 -117 632 -417
787 -19 10 -40 18 -47 18 -7 0 -17 9 -23 19 -7 14 -9 273 -8 798 l3 778 485 3
c267 1 495 0 507 -3 l22 -5 3 -803 3 -802 34 -51 c19 -28 56 -66 83 -84 46
-30 57 -32 132 -32 78 -1 86 1 135 33 59 39 94 86 111 150 9 32 12 246 12 808
-1 537 2 769 10 778 8 10 110 13 508 13 445 0 499 -2 504 -16 3 -9 6 -434 6
-945 0 -1022 -5 -942 63 -1078 36 -72 128 -164 198 -197 126 -62 98 -58 463
-64 l340 -5 33 -64 c43 -82 92 -156 140 -207 46 -50 171 -144 213 -160 8 -3
29 -12 45 -19 102 -44 138 -50 295 -49 160 0 184 5 315 59 114 48 262 177 332
290 28 45 76 152 91 204 24 79 24 333 0 412 -14 50 -56 143 -93 208 -44 78
-223 239 -295 267 -8 3 -22 10 -30 15 -8 5 -19 11 -25 13 -5 1 -26 9 -45 16
-69 24 -147 35 -255 34 -123 0 -181 -8 -240 -31 -213 -84 -350 -210 -452 -413
l-28 -55 -275 0 -275 0 0 890 0 890 175 6 c188 7 305 20 338 38 11 6 30 11 41
11 10 0 32 6 48 14 15 8 63 31 106 53 124 60 163 89 262 188 99 99 128 138
188 262 22 43 45 91 53 106 8 16 14 38 14 48 0 11 5 30 11 41 19 34 31 143 38
333 l6 180 890 0 890 0 0 -275 0 -275 -55 -28 c-202 -101 -336 -248 -409 -447
-49 -132 -49 -368 0 -500 31 -85 56 -130 116 -211 38 -51 151 -157 198 -186
46 -29 167 -83 184 -83 10 0 35 -7 56 -16 49 -20 304 -15 381 9 48 14 156 63
199 90 113 70 242 218 290 332 54 131 59 154 59 315 1 169 -6 201 -67 330 -75
158 -188 270 -367 362 l-65 34 -5 339 c-6 366 -2 338 -64 464 -33 70 -125 162
-197 198 -136 68 -56 63 -1078 63 -511 0 -936 3 -945 6 -14 5 -16 59 -16 505
0 477 1 499 19 508 12 7 290 10 778 10 541 0 773 3 806 12 53 13 117 64 154
123 22 35 26 52 26 121 0 75 -3 85 -33 132 -18 28 -55 65 -84 84 l-51 34 -802
3 -803 3 -5 22 c-3 12 -4 240 -3 507 l3 485 789 0 c691 0 790 -2 797 -15 4 -8
16 -33 26 -55 42 -90 121 -191 204 -260 155 -129 380 -194 575 -166 49 7 104
19 122 27 18 8 39 14 47 14 24 0 135 61 195 106 98 74 206 207 239 295 7 19
19 48 27 64 7 17 16 47 19 68 3 21 13 41 21 44 19 7 21 294 2 291 -7 -2 -16
14 -21 37 -5 22 -15 54 -22 70 -7 17 -19 45 -26 63 -34 90 -138 219 -239 296
-102 78 -211 121 -357 143 -93 14 -113 14 -205 0 -134 -20 -215 -50 -323 -122
-103 -68 -206 -188 -258 -300 -10 -22 -22 -47 -26 -55 -7 -13 -106 -15 -797
-15 l-789 0 -3 485 c-1 267 0 495 3 507 l5 22 803 3 802 3 51 34 c29 19 66 56
84 84 30 47 33 57 33 132 0 71 -3 86 -28 124 -15 25 -41 57 -59 73 -64 59 -58
59 -895 59 -487 0 -771 3 -782 10 -18 9 -19 33 -19 508 0 446 2 500 16 505 9
3 432 6 942 6 1020 0 945 -4 1081 63 72 37 164 128 197 198 62 131 58 97 64
464 l5 340 61 30 c210 104 343 258 420 485 29 83 26 341 -4 425 -80 228 -205
376 -396 469 -125 61 -172 71 -341 71 -165 0 -214 -10 -326 -65 -99 -49 -110
-55 -177 -116 -129 -116 -213 -257 -245 -414 -15 -69 -15 -259 0 -325 50 -229
213 -429 436 -534 29 -14 49 -31 52 -44 3 -12 4 -137 3 -277 l-3 -255 -890 0
-890 0 -6 180 c-7 190 -19 299 -38 333 -6 11 -11 30 -11 41 0 10 -6 32 -14 48
-13 27 -38 83 -50 113 -3 8 -15 29 -26 45 -11 17 -24 39 -29 50 -5 11 -17 29
-28 40 -10 11 -36 42 -58 69 -43 53 -177 172 -210 187 -11 5 -33 18 -50 29
-16 11 -37 23 -45 26 -30 12 -86 37 -113 50 -16 8 -38 14 -48 14 -11 0 -30 5
-41 11 -34 18 -141 30 -333 37 l-180 7 0 890 0 890 275 0 275 0 28 -55 c64
-129 137 -219 237 -294 111 -82 190 -118 328 -145 123 -25 348 1 432 50 8 5
22 12 30 15 8 3 22 10 30 15 8 5 22 12 30 16 58 26 218 179 256 245 36 63 84
171 84 187 0 10 7 35 16 56 20 49 15 304 -9 381 -14 48 -63 156 -90 199 -71
114 -212 237 -337 292 -118 52 -148 58 -310 58 -125 0 -166 -4 -210 -19 -60
-20 -116 -43 -140 -57 -8 -5 -22 -12 -30 -16 -27 -11 -144 -105 -178 -142 -45
-49 -101 -132 -137 -205 l-30 -61 -340 -5 c-366 -6 -338 -2 -464 -64 -70 -33
-162 -125 -198 -197 -68 -136 -63 -56 -63 -1078 0 -511 -3 -936 -6 -945 -5
-14 -59 -16 -504 -16 -398 0 -500 3 -508 13 -8 9 -11 241 -10 778 0 562 -3
776 -12 808 -17 64 -52 111 -111 150 -49 32 -57 34 -135 33 -75 0 -86 -2 -132
-32 -27 -18 -64 -56 -83 -84 l-34 -51 -3 -802 -3 -803 -22 -5 c-12 -3 -240 -4
-507 -3 l-485 3 -3 778 c-1 525 1 784 8 798 6 10 17 19 25 19 31 0 168 88 230
147 36 34 111 128 142 178 43 69 79 181 94 290 24 183 -33 395 -147 545 -44
57 -117 129 -171 168 -55 38 -133 82 -148 82 -7 0 -26 6 -42 14 -15 8 -46 18
-68 23 -23 5 -39 14 -37 21 1 9 -36 12 -149 12 -98 0 -148 -3 -144 -10z m227
-528 c48 -18 128 -78 128 -95 0 -6 7 -18 15 -28 21 -22 31 -142 16 -195 -15
-55 -81 -129 -138 -154 -100 -44 -218 -17 -292 67 -50 56 -65 107 -58 194 6
75 29 119 82 164 75 62 164 79 247 47z m-4563 -277 c58 -36 87 -71 110 -131
26 -68 26 -104 4 -168 -46 -128 -195 -206 -313 -163 -116 42 -180 128 -180
243 0 119 71 213 185 245 50 13 154 0 194 -26z m9212 3 c44 -23 81 -63 109
-119 27 -52 27 -155 0 -206 -87 -167 -279 -203 -405 -78 -89 90 -105 182 -51
297 21 44 39 64 79 91 29 20 66 37 82 40 53 9 146 -4 186 -25z m-11281 -2038
c89 -45 150 -142 150 -237 0 -95 -81 -202 -179 -237 -65 -23 -117 -18 -193 18
-45 21 -64 38 -94 84 -37 55 -38 60 -38 142 0 74 3 90 26 125 30 47 63 76 115
104 53 28 159 28 213 1z m13311 -1 c56 -28 94 -64 121 -113 18 -33 22 -57 21
-121 0 -69 -4 -87 -26 -122 -36 -56 -60 -77 -124 -107 -66 -32 -114 -33 -188
-4 -91 35 -165 138 -165 231 0 93 60 190 148 236 52 28 159 28 213 0z m-3096
-753 c44 -7 100 -22 125 -33 95 -43 195 -137 245 -233 10 -19 22 -44 28 -55
37 -71 37 -78 37 -3765 0 -3691 0 -3696 -37 -3765 -6 -11 -17 -33 -24 -49 -24
-51 -92 -134 -139 -169 -86 -64 -155 -93 -253 -107 -53 -7 -1215 -10 -3650
-10 -3668 0 -3713 1 -3759 37 -7 6 -24 13 -38 16 -68 17 -250 204 -250 256 0
9 -5 22 -11 28 -39 39 -39 45 -39 3763 0 3828 -1 3681 48 3790 47 105 158 216
262 263 103 46 -16 44 3780 46 2977 0 3609 -2 3675 -13z m-10449 -3867 c111
-68 156 -207 104 -320 -25 -55 -35 -67 -84 -104 -68 -51 -217 -62 -267 -19 -8
8 -20 14 -25 14 -12 0 -84 82 -84 96 0 7 -7 25 -15 40 -43 83 16 240 110 292
75 42 194 43 261 1z m13835 -5 c89 -56 144 -206 105 -285 -9 -18 -16 -37 -16
-42 0 -15 -70 -97 -82 -97 -6 0 -19 -6 -27 -14 -50 -43 -199 -32 -267 19 -49
37 -59 49 -84 104 -35 77 -21 196 32 261 76 94 235 119 339 54z m-13619 -4585
c121 -47 193 -185 157 -300 -38 -120 -126 -189 -244 -189 -71 0 -104 12 -167
61 -59 48 -82 100 -82 194 0 77 2 84 38 138 30 46 49 62 99 86 75 36 127 39
199 10z m13332 -9 c54 -26 71 -40 102 -88 36 -54 38 -60 38 -137 -1 -117 -41
-182 -143 -234 -56 -29 -156 -29 -212 1 -90 46 -149 140 -149 235 1 93 73 196
162 231 76 30 126 28 202 -8z m-11297 -2032 c64 -17 141 -94 167 -166 23 -67
18 -118 -19 -195 -22 -45 -40 -65 -84 -94 -53 -35 -60 -37 -136 -37 -117 1
-182 41 -235 145 -28 55 -27 155 2 211 62 118 177 169 305 136z m9213 -1 c76
-27 123 -69 160 -140 27 -51 27 -154 0 -206 -53 -104 -118 -144 -235 -145 -77
0 -83 2 -137 38 -46 30 -63 49 -84 94 -38 81 -41 129 -14 203 48 126 191 199
310 156z m-4577 -267 c57 -25 123 -99 138 -154 15 -53 5 -173 -16 -195 -8 -10
-15 -22 -15 -28 0 -15 -76 -75 -118 -92 -48 -19 -136 -19 -184 0 -49 20 -104
65 -129 108 -25 43 -36 150 -20 207 14 53 81 128 134 153 58 27 151 27 210 1z"/>
<path d="M6100 9974 c-104 -18 -197 -64 -257 -126 -37 -38 -83 -127 -94 -178
-9 -47 -28 -124 -45 -186 -8 -28 -14 -61 -14 -74 0 -13 -6 -46 -14 -74 -8 -28
-22 -87 -31 -131 -16 -78 -31 -139 -55 -240 -7 -27 -16 -70 -20 -95 -8 -48
-23 -114 -46 -196 -8 -28 -14 -61 -14 -74 0 -13 -6 -46 -14 -74 -23 -82 -38
-148 -46 -196 -8 -48 -23 -114 -46 -196 -8 -28 -14 -61 -14 -74 0 -13 -6 -46
-14 -74 -23 -82 -38 -148 -46 -196 -4 -25 -13 -67 -20 -95 -24 -100 -38 -161
-55 -240 -9 -44 -23 -105 -30 -135 -7 -30 -21 -91 -30 -135 -9 -44 -23 -105
-30 -135 -7 -30 -21 -91 -30 -135 -9 -44 -23 -103 -31 -131 -8 -28 -14 -63
-14 -78 0 -15 -7 -43 -15 -63 -8 -19 -15 -48 -15 -63 0 -15 -7 -47 -15 -70 -8
-23 -15 -55 -15 -70 0 -15 -7 -44 -15 -63 -8 -20 -15 -48 -15 -63 0 -15 -6
-50 -14 -78 -23 -82 -38 -148 -46 -196 -4 -25 -13 -67 -20 -95 -45 -182 -70
-303 -70 -332 0 -51 43 -134 92 -177 105 -91 226 -92 333 -3 52 44 77 95 100
202 9 44 23 105 30 135 7 30 21 91 30 135 9 44 23 105 30 135 7 30 21 91 30
135 17 79 31 140 55 240 7 28 16 70 20 95 4 25 13 68 20 95 6 28 18 75 25 105
8 30 16 72 19 92 2 21 11 50 18 65 l13 28 464 3 c334 1 468 -1 477 -9 8 -6 14
-21 14 -32 0 -11 6 -43 14 -71 23 -82 38 -148 46 -196 4 -25 13 -67 20 -95 24
-100 38 -161 55 -240 9 -44 23 -105 30 -135 7 -30 21 -91 30 -135 9 -44 21
-98 27 -120 6 -22 14 -60 18 -85 15 -94 60 -261 77 -281 7 -8 13 -20 13 -25 0
-16 63 -66 110 -87 82 -36 177 -22 253 36 81 63 108 144 88 272 -10 65 -16 96
-42 200 -6 22 -14 63 -19 92 -4 28 -11 57 -15 63 -4 6 -11 35 -15 63 -9 52
-20 106 -45 207 -7 30 -21 91 -30 135 -9 44 -21 98 -27 120 -6 22 -14 60 -18
85 -4 25 -13 68 -20 95 -40 162 -59 247 -69 305 -8 44 -23 107 -44 185 -5 22
-13 60 -17 85 -8 48 -23 112 -46 196 -8 28 -14 61 -14 74 0 13 -6 46 -14 74
-23 82 -38 148 -46 196 -8 48 -23 114 -46 196 -8 28 -14 61 -14 74 0 13 -6 46
-14 74 -8 28 -22 87 -31 131 -9 44 -23 105 -30 135 -23 94 -36 153 -44 200 -9
50 -25 119 -47 196 -8 28 -14 61 -14 74 0 13 -6 46 -14 74 -23 82 -38 148 -46
196 -4 25 -13 68 -20 95 -6 28 -18 75 -25 105 -7 30 -20 85 -29 122 -9 36 -16
76 -16 87 0 20 -11 49 -53 141 -56 122 -248 226 -377 204z m59 -1044 c5 -19
15 -57 21 -85 7 -27 16 -70 20 -95 4 -25 13 -67 20 -95 24 -98 38 -161 55
-240 9 -44 23 -107 30 -140 8 -33 21 -94 30 -135 9 -41 22 -93 28 -115 5 -22
13 -60 17 -85 8 -48 23 -112 46 -196 8 -28 14 -61 14 -74 0 -13 6 -46 14 -74
29 -100 40 -166 30 -176 -7 -7 -139 -9 -355 -8 l-344 3 -3 25 c-2 13 3 49 11
80 8 30 23 91 32 135 9 44 23 105 30 135 7 30 21 91 30 135 9 44 23 105 30
135 22 89 36 152 44 200 5 25 13 65 19 90 7 25 17 65 23 90 6 25 14 65 18 90
5 25 13 65 19 90 29 117 34 138 42 185 4 28 13 63 19 78 6 16 11 41 11 57 0
16 3 36 7 46 6 16 7 15 20 -2 7 -10 18 -34 22 -54z"/>
<path d="M8106 9960 c-62 -22 -109 -59 -143 -113 -24 -37 -27 -52 -28 -127 0
-71 4 -91 22 -121 31 -50 71 -87 118 -112 37 -20 58 -21 315 -24 151 -2 281
-3 288 -3 9 0 12 -365 12 -1790 0 -1425 -3 -1790 -12 -1790 -7 0 -137 -1 -288
-3 -257 -3 -278 -4 -315 -24 -47 -25 -87 -62 -118 -112 -18 -30 -22 -50 -22
-121 1 -74 4 -90 27 -126 34 -53 91 -97 152 -117 44 -15 131 -17 830 -17 901
0 862 -3 950 85 40 40 55 64 69 112 10 35 15 74 12 90 -20 89 -59 148 -127
193 l-53 34 -289 3 c-218 2 -292 6 -298 16 -10 16 -10 3538 0 3555 6 9 78 13
293 15 268 3 286 4 325 25 64 33 118 101 139 174 16 59 16 64 -1 122 -15 45
-31 72 -70 111 -88 89 -48 85 -955 84 -728 -1 -788 -2 -833 -19z"/>
</g>
</svg>
